<svg width="24" height="24" viewBox="0 0 24 24" fill="none" xmlns="http://www.w3.org/2000/svg">
    <path d="M2 11L6 2L10 11" stroke="#B29B86" stroke-width="2" stroke-linecap="round" stroke-linejoin="round" />
    <path d="M9.1 9H2.9" stroke="#B29B86" stroke-width="2" stroke-linecap="round" stroke-linejoin="round" />
    <path d="M19.688 10.32C19.448 10.32 19.256 10.248 19.112 10.104C18.968 9.96 18.896 9.764 18.896 9.516C18.896 9.284 18.968 9.096 19.112 8.952C19.256 8.808 19.448 8.736 19.688 8.736C19.928 8.736 20.116 8.808 20.252 8.952C20.396 9.088 20.468 9.276 20.468 9.516C20.468 10.052 20.208 10.32 19.688 10.32ZM14.96 15.3258C15.0904 15.3899 15.2321 15.2951 15.2807 15.1582C15.6544 14.1058 16.1875 13.2371 16.88 12.552C17.696 11.736 18.632 11.328 19.688 11.328C20.632 11.328 21.388 11.656 21.956 12.312C22.436 12.864 22.676 13.548 22.676 14.364V14.628C22.676 15.356 22.448 15.924 21.992 16.332C21.6 16.684 21.092 16.86 20.468 16.86H15.284C15.1341 16.86 14.9903 16.8491 14.8526 16.8272C14.6766 16.7993 14.4992 16.905 14.4471 17.0754C14.2586 17.6915 13.8976 18.1877 13.364 18.564C12.804 18.948 12.124 19.14 11.324 19.14C10.244 19.14 9.408 18.76 8.816 18C8.352 17.408 8.12 16.712 8.12 15.912C8.12 15.3284 8.24621 14.813 8.49863 14.3658C8.53876 14.2947 8.60916 14.2466 8.68908 14.2299L9.34071 14.0942C9.59558 14.0411 9.80347 14.3229 9.71568 14.568C9.58789 14.9248 9.524 15.2928 9.524 15.672C9.524 16.28 9.696 16.772 10.04 17.148C10.368 17.508 10.796 17.688 11.324 17.688C11.876 17.688 12.304 17.548 12.608 17.268C12.92 16.988 13.076 16.596 13.076 16.092V13.1415C13.076 13.0299 13.1379 12.9276 13.2368 12.8758L14.1488 12.3981C14.3485 12.2934 14.588 12.4383 14.588 12.6638V14.544C14.588 14.9432 14.712 15.2038 14.96 15.3258ZM21.164 14.532V14.364C21.164 13.884 21.028 13.492 20.756 13.188C20.484 12.884 20.132 12.732 19.7 12.732C19.076 12.732 18.492 12.972 17.948 13.452C17.5021 13.8513 17.1337 14.3696 16.8429 15.007C16.7557 15.1979 16.9005 15.408 17.1104 15.408H20.408C20.696 15.408 20.892 15.348 20.996 15.228C21.108 15.1 21.164 14.868 21.164 14.532Z" fill="#B29B86"/>
</svg>