<svg id="Layer_1" data-name="Layer 1" xmlns="http://www.w3.org/2000/svg" viewBox="0 0 160 283.69">
	<defs>
		<style>
			.cls-1 {
				fill: #fff;
			}

			.cls-2 {
				fill: #b29b86;
			}
		</style>
	</defs>
	<g id="Background">
		<path id="Path_0" data-name="Path 0" class="cls-1"
			d="M286.1,380.7c-1.2.4-1.5,2.7-1.3,11.9L285,404H275c0-13.7-.1-14-2.2-13.5a19.76,19.76,0,0,1-3,.5c-.5,0-.8,2.9-.8,6.5,0,6.3-.1,6.5-2.5,6.5s-2.5-.2-2.5-7c0-4-.4-7-1-7a11.13,11.13,0,0,0-2.7.6c-1.4.5-1.6,1.8-1.5,7l.2,6.4h-6c0-12.8-.3-13.9-1.5-13.5a8.5,8.5,0,0,1-2.5.5c-.6,0-1,2.8-1,6.5V404H238c-1.4-13.5-1.7-14.1-3.5-13.6a19.72,19.72,0,0,1-2.5.6c-.3,0-.4,4.4-.2,9.8.3,9,.2,9.9-2,12-1.3,1.2-2.9,2.2-3.5,2.2a1.44,1.44,0,0,0-1.3,1.5,2.53,2.53,0,0,0,1.3,2.1c.6.3,2.9-.2,5-1a11.38,11.38,0,0,0,5.5-5.1l1.7-3.5H291c0-27.7-.2-29-1.7-28.9A10.13,10.13,0,0,0,286.1,380.7Zm10.4,0c-.5.3-.8,6.9-.7,14.5L296,409h5c0-27.9-.1-29-1.8-29A5.1,5.1,0,0,0,296.5,380.7ZM188,390a9.15,9.15,0,0,1-.5,2.5c-.3.9.3,1.7,1.5,2a7.2,7.2,0,0,1,3.4,2.7,19.46,19.46,0,0,1,2,4.5c.6,2.2.4,2.3-5.9,2-5.8-.2-6.6,0-7.1,1.8a2.28,2.28,0,0,0,.8,2.7c.7.4,7,.8,14.1.8,7.5,0,12.9-.4,13.2-1s2.2-.2,4.8,1a20.47,20.47,0,0,0,6,2c.9,0,2.4-1.4,3.2-3,1.2-2.4,1.3-3.9.4-7.8a25.4,25.4,0,0,0-2.5-7,4.8,4.8,0,0,0-3.9-2.2c-1.6,0-3.5,1.2-5.3,3.2a34.61,34.61,0,0,0-4.2,6.6c-1.3,2.7-2,3.3-4.7,3.2s-3.3-.4-3.3-2.3a20.59,20.59,0,0,0-2.3-6.1,15.45,15.45,0,0,0-4.9-5.2A12.9,12.9,0,0,0,189,389a.94.94,0,0,0-1,1Z"
			transform="translate(-160 -175)" />
		<path id="Path_1" data-name="Path 1" class="cls-1"
			d="M209.9,136.9a12.7,12.7,0,0,0-2.1,4.7c-.4,1.6-1.1,6-1.7,9.9s-1.1,7.3-1.1,7.7-1.5,1.5-3.3,2.4a31.32,31.32,0,0,0-5.2,3.5c-2,1.8-2.2,1.8-11.3-2.1-5-2.2-10.4-4-12-4a5.9,5.9,0,0,0-4.2,1.6,50.74,50.74,0,0,0-4,6c-1.4,2.4-5.3,9.4-8.8,15.6-4,7.2-6.2,12-5.8,13.3.2,1.1,3.1,4.3,6.3,7.1a86.18,86.18,0,0,0,8.5,6.7c2.6,1.6,2.8,2.2,2.8,8.4v6.8c-14,12-18,16.3-18,17.2s1.8,5.2,4.1,9.3,6.5,11.4,9.3,16.2c3.2,5.5,6,9.2,7.6,9.9,2.1.9,4.1.4,12.5-2.9l10-3.9c7.7,4.4,10.4,5.8,10.8,5.9s1,1.7,1.2,3.3.7,5.9,1.1,9.5a41.39,41.39,0,0,0,1.5,8.7A7.22,7.22,0,0,0,211,301c1.1.6,10,1,19.7,1,17.2.1,17.9,0,20-2.2,1.6-1.8,2.4-4.6,3.5-12.2.7-5.4,1.5-10.1,1.8-10.5a56.15,56.15,0,0,1,5.5-3.7l5-3c15.5,5.8,20.6,7.5,21.3,7.6s2.6-1.2,4.1-2.8,5.1-7.2,8.1-12.7,6.4-11.7,7.7-13.8A15.31,15.31,0,0,0,310,242c0-2.2-.9-3.7-3.3-5.5-1.7-1.4-4.6-3.8-6.2-5.4a32.52,32.52,0,0,0-5.8-4.5c-2.5-1.5-2.7-2.1-2.7-8.1,0-6.5,0-6.5,4.3-9.8,2.4-1.7,6.4-5,9-7.2,3.3-2.9,4.6-4.7,4.7-6.8,0-1.6-2.9-8-7.1-15.5-4-7-7.9-13.8-8.7-15.2a21.84,21.84,0,0,0-3.1-3.8A7.62,7.62,0,0,0,287,159c-1.4,0-6.6,1.8-11.5,3.9l-9,3.9c-6.2-4.5-8.6-5.8-9.3-5.8s-1.4-1-1.7-2.3-1-6-1.5-10.7-1.8-9.5-2.6-10.8c-1.4-2.2-1.8-2.2-20.8-2.2-17.6,0-19.4.2-20.7,1.9Z"
			transform="translate(-150 -100)" />
		<path id="Path_2" data-name="Path 2" class="cls-2"
			d="M218.1,183c-1.4.5-2.4,1.2-2.3,1.5s3.3,11.4,7.2,24.8,8.3,28.7,10,34.2,3.2,10.1,3.3,10.3,1.9.1,4-.2c3.2-.5,3.6-.9,3.3-2.9-.2-1.2-2.9-10.8-5.9-21.2s-7.1-24.4-9.1-31-4.1-13-4.6-14.3-1.6-2.2-2.2-2.1A13.85,13.85,0,0,0,218.1,183Zm-22.6,21.3c-7,6.7-12.6,12.9-12.6,13.7s5.9,7.3,13.1,14.5c7.6,7.7,13.3,12.6,13.7,12s2.2-2.5,3.8-4.3l3-3.2-19-18.8c11.7-11.4,16-15.7,17.1-17l1.9-2.2c-5.4-5.5-7.3-7-7.7-7S202.5,197.5,195.5,204.3Zm51.4-8.8-3.4,3.5c3,3.5,7.3,7.8,11.4,11.8l7.6,7.4-19,18.8c4.6,5,6.3,6.9,6.8,7.5s6.1-4.3,13.7-12c7.2-7.2,13-13.7,13-14.5s-5.6-7-12.5-13.8S251.6,192,251.2,192,248.8,193.6,246.9,195.5Z"
			transform="translate(-150 -100)" />
		<path id="Path_3" data-name="Path 3" class="cls-2"
			d="M214,398.2a3.58,3.58,0,0,0-1.2,2.8c0,.8,1.5,2.2,3.2,3s3.2,1.3,3.5,1,0-2.2-.5-4.2-1.6-3.8-2.3-3.8A4.93,4.93,0,0,0,214,398.2Z"
			transform="translate(-160 -175)" />
	</g>
</svg>